<?xml version="1.0" encoding="UTF-8" standalone="no"?>
<!-- Created with Inkscape (http://www.inkscape.org/) -->

<svg
   xmlns:dc="http://purl.org/dc/elements/1.1/"
   xmlns:cc="http://creativecommons.org/ns#"
   xmlns:rdf="http://www.w3.org/1999/02/22-rdf-syntax-ns#"
   xmlns:svg="http://www.w3.org/2000/svg"
   xmlns="http://www.w3.org/2000/svg"
   xmlns:xlink="http://www.w3.org/1999/xlink"
   xmlns:sodipodi="http://sodipodi.sourceforge.net/DTD/sodipodi-0.dtd"
   xmlns:inkscape="http://www.inkscape.org/namespaces/inkscape"
   width="24"
   height="24"
   id="svg2"
   version="1.1"
   inkscape:version="0.48+devel r"
   sodipodi:docname="close_focused_pressed.svg">
  <defs
     id="defs4">
    <linearGradient
       id="linearGradient3777">
      <stop
         id="stop3779"
         offset="0"
         style="stop-color:#000000;stop-opacity:0.22745098;" />
      <stop
         id="stop3781"
         offset="1"
         style="stop-color:#000000;stop-opacity:0;" />
    </linearGradient>
    <linearGradient
       id="linearGradient3767">
      <stop
         style="stop-color:#ffffff;stop-opacity:0.88235295;"
         offset="0"
         id="stop3769" />
      <stop
         style="stop-color:#ffa300;stop-opacity:1;"
         offset="1"
         id="stop3771" />
    </linearGradient>
    <linearGradient
       id="linearGradient3757">
      <stop
         style="stop-color:#bebebe;stop-opacity:1;"
         offset="0"
         id="stop3759" />
      <stop
         style="stop-color:#e6e6e6;stop-opacity:1;"
         offset="1"
         id="stop3761" />
    </linearGradient>
    <linearGradient
       inkscape:collect="always"
       xlink:href="#linearGradient3757"
       id="linearGradient3763"
       x1="13"
       y1="4"
       x2="13"
       y2="19"
       gradientUnits="userSpaceOnUse" />
    <linearGradient
       inkscape:collect="always"
       xlink:href="#linearGradient3767"
       id="linearGradient3797"
       gradientUnits="userSpaceOnUse"
       x1="13.333333"
       y1="5.9999866"
       x2="13.333333"
       y2="16.999987" />
    <linearGradient
       inkscape:collect="always"
       xlink:href="#linearGradient3777"
       id="linearGradient3801"
       gradientUnits="userSpaceOnUse"
       x1="14.470589"
       y1="16.999983"
       x2="14.470589"
       y2="5.9999824" />
    <filter
       id="filter16524-9"
       width="1.426"
       y="-0.21306001"
       x="-0.21298"
       height="1.4261"
       style="color-interpolation-filters:sRGB">
      <feGaussianBlur
         id="feGaussianBlur16526-0"
         stdDeviation="0.71020915" />
    </filter>
  </defs>
  <sodipodi:namedview
     id="base"
     pagecolor="#ffffff"
     bordercolor="#666666"
     borderopacity="1.0"
     inkscape:pageopacity="0.0"
     inkscape:pageshadow="2"
     inkscape:zoom="8.234375"
     inkscape:cx="-7.6457837"
     inkscape:cy="12.857368"
     inkscape:document-units="px"
     inkscape:current-layer="layer2"
     showgrid="true"
     showguides="true"
     inkscape:guide-bbox="true"
     inkscape:window-width="1150"
     inkscape:window-height="697"
     inkscape:window-x="60"
     inkscape:window-y="31"
     inkscape:window-maximized="0"
     fit-margin-top="0"
     fit-margin-left="0"
     fit-margin-right="0"
     fit-margin-bottom="0">
    <inkscape:grid
       type="xygrid"
       id="grid2985"
       empspacing="5"
       visible="true"
       enabled="true"
       snapvisiblegridlinesonly="true"
       originx="-1.9999997px"
       originy="-2.0000327px" />
  </sodipodi:namedview>
  <metadata
     id="metadata7">
    <rdf:RDF>
      <cc:Work
         rdf:about="">
        <dc:format>image/svg+xml</dc:format>
        <dc:type
           rdf:resource="http://purl.org/dc/dcmitype/StillImage" />
        <dc:title></dc:title>
      </cc:Work>
    </rdf:RDF>
  </metadata>
  <g
     inkscape:label="Layer 1"
     inkscape:groupmode="layer"
     id="layer1"
     transform="translate(-1.9999997,-1026.3622)">
    <g
       id="g4399"
       transform="matrix(1.2640331,0,0,1.2684601,-0.54469491,-281.98018)">
      <path
         transform="matrix(1.2666667,0,0,1.2666667,-4.3333338,1026.2955)"
         d="m 20,11.5 c 0,3.926991 -3.573634,7.500002 -7.498178,7.499769 C 8.5772772,18.999536 5.0103858,15.426553 5.0103858,11.5 c 0,-3.926553 3.5668914,-7.4995363 7.4914362,-7.4997691 C 16.426366,3.9999981 20,7.5730092 20,11.5 Z"
         sodipodi:ry="7.5"
         sodipodi:rx="7.5"
         sodipodi:cy="11.5"
         sodipodi:cx="12.5"
         id="path2987"
         style="fill:url(#linearGradient3763);fill-opacity:1;stroke:none"
         sodipodi:type="arc" />
      <path
         sodipodi:type="arc"
         style="fill:url(#linearGradient3801);fill-opacity:1;stroke:none"
         id="path3775"
         sodipodi:cx="13"
         sodipodi:cy="11.5"
         sodipodi:rx="5"
         sodipodi:ry="5.5"
         d="m 18,11.5 c 0,2.879793 -2.382423,5.500001 -4.998786,5.499831 C 10.384851,16.99966 8.0069239,14.379472 8.0069239,11.5 c 0,-2.8794722 2.3779271,-5.49966 4.9942901,-5.4998307 C 15.617577,5.9999986 18,8.6202067 18,11.5 Z"
         transform="matrix(1.7,0,0,-1.5454545,-10.6,1058.635)" />
      <path
         transform="matrix(1.5,0,0,1.3636364,-8,1025.1804)"
         d="m 18,11.5 c 0,2.879793 -2.382423,5.500001 -4.998786,5.499831 C 10.384851,16.99966 8.0069239,14.379472 8.0069239,11.5 c 0,-2.8794722 2.3779271,-5.49966 4.9942901,-5.4998307 C 15.617577,5.9999986 18,8.6202067 18,11.5 Z"
         sodipodi:ry="5.5"
         sodipodi:rx="5"
         sodipodi:cy="11.5"
         sodipodi:cx="13"
         id="path3765"
         style="fill:url(#linearGradient3797);fill-opacity:1;stroke:none"
         sodipodi:type="arc" />
    </g>
    <g
       inkscape:groupmode="layer"
       id="layer2"
       inkscape:label="Layer 2">
      <g
         id="g27275-6-6"
         style="fill:#ffffff"
         transform="matrix(1.0515043,0,0,1.0518577,6.4110036,1029.3239)">
        <g
           id="g27277-1-1"
           style="fill:#ffffff"
           transform="translate(-41,-760)">
          <path
             id="path16506-5"
             style="text-indent:0;text-transform:none;block-progression:tb;color:#bebebe;fill:#000000;filter:url(#filter16524-9);enable-background:new"
             d="m 44.219,764.19 0,1 c -0.02191,0.28075 0.07051,0.55537 0.28125,0.75 l 2.2812,2.2812 -2.2812,2.25 c -0.18819,0.18817 -0.28125,0.45346 -0.28125,0.71875 l 0,1 1,0 c 0.26529,0 0.53059,-0.0931 0.71875,-0.28125 l 2.281,-2.29 2.281,2.29 c 0.18816,0.18815 0.45345,0.28124 0.71875,0.28125 l 1,0 0,-1 c -8e-6,-0.2653 -0.09306,-0.53058 -0.28125,-0.71875 l -2.25,-2.25 2.2812,-2.2812 c 0.21566,-0.19935 0.25,-0.46353 0.25,-0.75 l 0,-1 -1,0 c -0.24083,0.007 -0.42188,0.082 -0.6875,0.3125 l -2.3125,2.2812 -2.282,-2.28 c -0.17763,-0.18392 -0.43255,-0.3013 -0.6875,-0.3125 -0.01046,-4.6e-4 -0.02088,-1.2e-4 -0.03125,0 l -1,0 z"
             xlink:href="#path27279-0-5"
             transform="translate(0,1.3536)"
             inkscape:connector-curvature="0" />
          <path
             id="path27279-0-5"
             d="m 44.226,764.17 1,0 c 0.01037,-1.2e-4 0.02079,-4.6e-4 0.03125,0 0.25495,0.0112 0.50987,0.12858 0.6875,0.3125 l 2.2812,2.2812 2.3125,-2.2812 c 0.26562,-0.2305 0.44667,-0.3055 0.6875,-0.3125 l 1,0 0,1 c 0,0.28647 -0.03434,0.55065 -0.25,0.75 l -2.2812,2.2812 2.25,2.25 c 0.18819,0.18817 0.28124,0.45345 0.28125,0.71875 l 0,1 -1,0 c -0.2653,-10e-6 -0.53059,-0.0931 -0.71875,-0.28125 l -2.2812,-2.2812 -2.2812,2.2812 c -0.18816,0.18819 -0.45346,0.28125 -0.71875,0.28125 l -1,0 0,-1 c -3e-6,-0.26529 0.09306,-0.53058 0.28125,-0.71875 l 2.2812,-2.25 -2.2812,-2.2812 c -0.21074,-0.19463 -0.30316,-0.46925 -0.28125,-0.75 l 0,-1 z"
             style="text-indent:0;text-transform:none;block-progression:tb;color:#bebebe;fill:#ffffff;enable-background:new"
             inkscape:connector-curvature="0" />
        </g>
      </g>
    </g>
  </g>
</svg>
