<?xml version="1.0" encoding="UTF-8" standalone="no"?>
<!-- Created with Inkscape (http://www.inkscape.org/) -->

<svg
   xmlns:dc="http://purl.org/dc/elements/1.1/"
   xmlns:cc="http://creativecommons.org/ns#"
   xmlns:rdf="http://www.w3.org/1999/02/22-rdf-syntax-ns#"
   xmlns:svg="http://www.w3.org/2000/svg"
   xmlns="http://www.w3.org/2000/svg"
   xmlns:xlink="http://www.w3.org/1999/xlink"
   xmlns:sodipodi="http://sodipodi.sourceforge.net/DTD/sodipodi-0.dtd"
   xmlns:inkscape="http://www.inkscape.org/namespaces/inkscape"
   version="1.1"
   width="128"
   height="128"
   id="svg2"
   inkscape:version="0.48+devel r"
   sodipodi:docname="close.svg">
  <title
     id="title10592">Orange-Close</title>
  <sodipodi:namedview
     pagecolor="#ffffff"
     bordercolor="#666666"
     borderopacity="1"
     objecttolerance="10"
     gridtolerance="10"
     guidetolerance="10"
     inkscape:pageopacity="0"
     inkscape:pageshadow="2"
     inkscape:window-width="1366"
     inkscape:window-height="706"
     id="namedview21"
     showgrid="false"
     inkscape:zoom="3.765625"
     inkscape:cx="64"
     inkscape:cy="64"
     inkscape:window-x="0"
     inkscape:window-y="31"
     inkscape:window-maximized="1"
     inkscape:current-layer="svg2" />
  <defs
     id="defs4">
    <radialGradient
       cx="11"
       cy="1040.3622"
       r="7.5"
       fx="11"
       fy="1040.3622"
       id="radialGradient5950"
       xlink:href="#linearGradient5507"
       gradientUnits="userSpaceOnUse"
       gradientTransform="matrix(7.3333329,0,0,7.3333329,-5.6667935,-7583.6558)" />
    <linearGradient
       id="linearGradient5507">
      <stop
         id="stop5954"
         style="stop-color:#ffffff;stop-opacity:1"
         offset="0" />
      <stop
         id="stop5956"
         style="stop-color:#ffa300;stop-opacity:1"
         offset="1" />
    </linearGradient>
    <this
       id="filter3997-1"
       style="color-interpolation-filters:sRGB">
      <feGaussianBlur
         stdDeviation="3.0873328"
         id="feGaussianBlur3999-5" />
    </this>
    <linearGradient
       x1="1340.0358"
       y1="4837.6333"
       x2="1555.1674"
       y2="4516.7417"
       id="linearGradient4195-3"
       xlink:href="#linearGradient4001-6-2"
       gradientUnits="userSpaceOnUse"
       gradientTransform="matrix(0.24980186,0,0,0.24980158,-309.76273,-1090.7379)" />
    <linearGradient
       id="linearGradient4001-6-2">
      <stop
         id="stop4003-7-0"
         style="stop-color:#808080;stop-opacity:1"
         offset="0" />
      <stop
         id="stop4005-1-1"
         style="stop-color:#000000;stop-opacity:0.39215687"
         offset="1" />
    </linearGradient>
  </defs>
  <metadata
     id="metadata7">
    <rdf:RDF>
      <cc:Work
         rdf:about="">
        <dc:format>image/svg+xml</dc:format>
        <dc:type
           rdf:resource="http://purl.org/dc/dcmitype/StillImage" />
        <dc:title>Orange-Close</dc:title>
        <cc:license
           rdf:resource="http://creativecommons.org/licenses/by-nc-sa/3.0/" />
        <dc:date>Oct. 2013</dc:date>
        <dc:creator>
          <cc:Agent>
            <dc:title>Serge Wagner</dc:title>
          </cc:Agent>
        </dc:creator>
        <dc:rights>
          <cc:Agent>
            <dc:title>CC-by-nc-sa</dc:title>
          </cc:Agent>
        </dc:rights>
        <dc:publisher>
          <cc:Agent>
            <dc:title>Serge Wagner</dc:title>
          </cc:Agent>
        </dc:publisher>
      </cc:Work>
      <cc:License
         rdf:about="http://creativecommons.org/licenses/by-nc-sa/3.0/">
        <cc:permits
           rdf:resource="http://creativecommons.org/ns#Reproduction" />
        <cc:permits
           rdf:resource="http://creativecommons.org/ns#Distribution" />
        <cc:requires
           rdf:resource="http://creativecommons.org/ns#Notice" />
        <cc:requires
           rdf:resource="http://creativecommons.org/ns#Attribution" />
        <cc:prohibits
           rdf:resource="http://creativecommons.org/ns#CommercialUse" />
        <cc:permits
           rdf:resource="http://creativecommons.org/ns#DerivativeWorks" />
        <cc:requires
           rdf:resource="http://creativecommons.org/ns#ShareAlike" />
      </cc:License>
    </rdf:RDF>
  </metadata>
  <circle
     style="fill:#808080;fill-opacity:1;stroke:none"
     id="path4003"
     r="63.689835"
     cy="64.060143"
     cx="63.939835" />
  <circle
     style="fill:#ffffff;fill-opacity:1;stroke:none"
     id="path4003-9"
     r="60.93568"
     cy="64.060143"
     cx="63.939835" />
  <circle
     style="opacity:0.98299997;fill:#f8f8f8;fill-opacity:1;stroke:none"
     id="path4545"
     r="51.640408"
     cy="64.060143"
     cx="63.939835" />
  <circle
     style="fill:url(#radialGradient5950);fill-opacity:1;stroke:none"
     id="path4545-2"
     cy="64"
     cx="64"
     r="55" />
  <g
     id="layer2"
     style="opacity:0.98299997"
     transform="matrix(6.8853875,0,0,6.8853875,-1.4713469,-1.3508802)" />
  <path
     inkscape:connector-curvature="0"
     style="opacity:0.98299997;fill:none;stroke:none;filter:url(#filter3997-1)"
     id="path4168-8"
     d="M 72.354363,47.522426 88.420678,61.85195 c 2.571024,2.519157 2.571024,6.575339 0,9.093738 -2.57099,2.518331 -6.711938,2.518331 -9.282949,0 L 63.790168,55.911651 48.442634,70.945688 c -2.571017,2.518331 -6.711958,2.518331 -9.282955,0 -2.571017,-2.518399 -2.571017,-6.574581 0,-9.093738 L 56.124441,47.170445 c 7.608557,-6.238712 7.619498,-6.175504 16.229922,0.351844 z"
     sodipodi:nodetypes="ccscccsccc" />
  <path
     inkscape:connector-curvature="0"
     style="fill:url(#linearGradient4195-3);fill-opacity:1;stroke:none"
     id="path4170"
     d="m 88.914215,41.840123 c -2.488606,-2.489068 -6.496769,-2.489068 -8.985375,0 L 65.07325,56.696035 50.217682,41.840123 c -2.4886,-2.489068 -6.496763,-2.489068 -8.985361,0 -2.48858,2.489067 -2.48858,6.496363 0,8.98543 L 56.087902,65.681465 41.232341,80.536 c -2.4886,2.489068 -2.4886,6.497052 0,8.986119 2.488578,2.488379 6.496762,2.488379 8.985369,0 L 65.073284,74.666207 79.928819,89.522119 c 2.4886,2.488379 6.49679,2.488379 8.985369,0 2.488599,-2.489067 2.488599,-6.497051 0,-8.986119 L 74.05862,65.681465 88.914215,50.825553 c 2.488572,-2.489067 2.488572,-6.496363 0,-8.98543 z" />
  <path
     inkscape:connector-curvature="0"
     style="fill:#ffffff;fill-opacity:1;stroke:none;filter:url(#filter3997-1)"
     id="path4168"
     d="m 87.98638,40.555447 c -2.510099,-2.473369 -6.552899,-2.473369 -9.062996,0 L 63.939455,55.320472 48.955552,40.555447 c -2.5101,-2.473369 -6.552898,-2.473369 -9.062997,0 -2.510074,2.473438 -2.510074,6.457185 0,8.930623 L 54.876483,64.251095 39.89258,79.016051 c -2.510099,2.473438 -2.510099,6.457185 0,8.930623 2.510074,2.473369 6.552898,2.473369 9.062998,0 L 63.93948,73.181649 78.923357,87.946674 c 2.510103,2.473369 6.552924,2.473369 9.063003,0 2.510091,-2.473438 2.510091,-6.457185 0,-8.930623 L 73.002454,64.251095 87.98638,49.48607 c 2.510071,-2.473438 2.510071,-6.457185 0,-8.930623 z" />
</svg>
