<?xml version="1.0" encoding="UTF-8" standalone="no"?>
<!-- Created with Inkscape (http://www.inkscape.org/) -->

<svg
   xmlns:dc="http://purl.org/dc/elements/1.1/"
   xmlns:cc="http://creativecommons.org/ns#"
   xmlns:rdf="http://www.w3.org/1999/02/22-rdf-syntax-ns#"
   xmlns:svg="http://www.w3.org/2000/svg"
   xmlns="http://www.w3.org/2000/svg"
   xmlns:xlink="http://www.w3.org/1999/xlink"
   xmlns:sodipodi="http://sodipodi.sourceforge.net/DTD/sodipodi-0.dtd"
   xmlns:inkscape="http://www.inkscape.org/namespaces/inkscape"
   version="1.1"
   width="22"
   height="22"
   id="svg2"
   inkscape:version="0.48+devel r"
   sodipodi:docname="close.svg">
  <title
     id="title9936">Orange-Close</title>
  <sodipodi:namedview
     pagecolor="#ffffff"
     bordercolor="#666666"
     borderopacity="1"
     objecttolerance="10"
     gridtolerance="10"
     guidetolerance="10"
     inkscape:pageopacity="0"
     inkscape:pageshadow="2"
     inkscape:window-width="1366"
     inkscape:window-height="706"
     id="namedview21"
     showgrid="false"
     inkscape:zoom="25.263158"
     inkscape:cx="9.5"
     inkscape:cy="9.5"
     inkscape:window-x="0"
     inkscape:window-y="31"
     inkscape:window-maximized="1"
     inkscape:current-layer="svg2" />
  <defs
     id="defs4">
    <linearGradient
       id="waiss">
      <stop
         offset="0"
         style="stop-color:#ffffff;stop-opacity:1"
         id="stop5503" />
      <stop
         offset="1"
         style="stop-color:#ffffff;stop-opacity:0.3137255"
         id="stop5505" />
    </linearGradient>
    <radialGradient
       cx="11"
       cy="1040.3622"
       r="7.5"
       fx="11"
       fy="1040.3622"
       id="radialGradient5950"
       xlink:href="#waiss"
       gradientUnits="userSpaceOnUse"
       gradientTransform="matrix(1.1333333,0,0,1.1333333,0.2333136,-1170.9105)" />
    <linearGradient
       id="linearGradient5507">
      <stop
         id="stop5954"
         style="stop-color:#ffffff;stop-opacity:1"
         offset="0" />
      <stop
         id="stop5956"
         style="stop-color:#ffa300;stop-opacity:1"
         offset="1" />
    </linearGradient>
    <linearGradient
       x1="1509.5334"
       y1="4492.1187"
       x2="1509.5334"
       y2="4800.3247"
       id="linearGradient4195"
       xlink:href="#linearGradient4001-6"
       gradientUnits="userSpaceOnUse"
       gradientTransform="matrix(0.03628,0,0,0.03627996,-39.547489,-154.6006)" />
    <linearGradient
       id="linearGradient4001-6">
      <stop
         id="stop4003-7"
         style="stop-color:#ffffff;stop-opacity:1"
         offset="0" />
      <stop
         id="stop4005-1"
         style="stop-color:#ffffff;stop-opacity:0"
         offset="1" />
    </linearGradient>
    <this
       id="filter3997-1"
       style="color-interpolation-filters:sRGB">
      <feGaussianBlur
         stdDeviation="3.0873328"
         id="feGaussianBlur3999-5" />
    </this>
    <linearGradient
       x1="1509.5334"
       y1="4492.1187"
       x2="1509.5334"
       y2="4800.3247"
       id="linearGradient4195-3"
       xlink:href="#linearGradient4001-6-2"
       gradientUnits="userSpaceOnUse"
       gradientTransform="matrix(0.03628,0,0,0.03627996,-44.974733,-158.41742)" />
    <linearGradient
       id="linearGradient4001-6-2">
      <stop
         id="stop4003-7-0"
         style="stop-color:#ffffff;stop-opacity:1"
         offset="0" />
      <stop
         id="stop4005-1-1"
         style="stop-color:#ffffff;stop-opacity:0"
         offset="1" />
    </linearGradient>
  </defs>
  <metadata
     id="metadata7">
    <rdf:RDF>
      <cc:Work
         rdf:about="">
        <dc:format>image/svg+xml</dc:format>
        <dc:type
           rdf:resource="http://purl.org/dc/dcmitype/StillImage" />
        <dc:title>Orange-Close</dc:title>
        <cc:license
           rdf:resource="http://creativecommons.org/licenses/by-nc-sa/3.0/" />
        <dc:date>Oct. 2013</dc:date>
        <dc:creator>
          <cc:Agent>
            <dc:title>Serge Wagner</dc:title>
          </cc:Agent>
        </dc:creator>
        <dc:rights>
          <cc:Agent>
            <dc:title>CC-by-nc-sa</dc:title>
          </cc:Agent>
        </dc:rights>
        <dc:publisher>
          <cc:Agent>
            <dc:title>Serge Wagner</dc:title>
          </cc:Agent>
        </dc:publisher>
      </cc:Work>
      <cc:License
         rdf:about="http://creativecommons.org/licenses/by-nc-sa/3.0/">
        <cc:permits
           rdf:resource="http://creativecommons.org/ns#Reproduction" />
        <cc:permits
           rdf:resource="http://creativecommons.org/ns#Distribution" />
        <cc:requires
           rdf:resource="http://creativecommons.org/ns#Notice" />
        <cc:requires
           rdf:resource="http://creativecommons.org/ns#Attribution" />
        <cc:prohibits
           rdf:resource="http://creativecommons.org/ns#CommercialUse" />
        <cc:permits
           rdf:resource="http://creativecommons.org/ns#DerivativeWorks" />
        <cc:requires
           rdf:resource="http://creativecommons.org/ns#ShareAlike" />
      </cc:License>
    </rdf:RDF>
  </metadata>
  <circle
     style="fill:#808080;fill-opacity:1;stroke:none"
     id="path4003"
     r="9.25"
     cy="11"
     cx="11" />
  <circle
     style="fill:#ffffff;fill-opacity:1;stroke:none"
     id="path4003-9"
     r="8.8500004"
     cy="11"
     cx="11" />
  <circle
     style="opacity:0.98299997;fill:#f8f8f8;fill-opacity:1;stroke:none"
     id="path4545"
     r="7.5"
     cy="11"
     cx="11" />
  <circle
     style="opacity:0.4;fill:url(#radialGradient5950);fill-opacity:1;stroke:none"
     id="path4545-2"
     r="8.5"
     cy="11"
     cx="11" />
  <g
     id="layer2"
     style="opacity:0.98299997"
     transform="translate(1.5,1.5000172)" />
  <path
     inkscape:connector-curvature="0"
     style="opacity:0.98299997;fill:none;stroke:none;filter:url(#filter3997-1)"
     id="path4168-8"
     d="m 12.222085,8.5981382 2.333393,2.0811468 c 0.373403,0.365869 0.373403,0.954972 0,1.320728 -0.373398,0.365756 -0.974809,0.365756 -1.34821,0 L 10.978263,9.8165452 8.7492625,12.000013 c -0.373402,0.365756 -0.974812,0.365756 -1.348211,0 -0.373402,-0.365756 -0.373402,-0.954859 0,-1.320728 L 9.8649305,8.5470152 C 10.96996,7.6409376 10.971549,7.6501196 12.222085,8.5981352 Z"
     sodipodi:nodetypes="ccscccsccc" />
  <path
     inkscape:connector-curvature="0"
     style="fill:#000000;fill-opacity:1;stroke:none;filter:url(#filter3997-1)"
     id="path4168"
     d="m 14.492452,7.5862917 c -0.364554,-0.3592287 -0.951711,-0.3592287 -1.316265,0 L 10.999995,9.7306912 8.8238057,7.5862917 c -0.3645546,-0.3592287 -0.9517108,-0.3592287 -1.3162654,0 -0.3645509,0.3592251 -0.3645509,0.9378065 0,1.2970355 L 9.6837328,11.027723 7.507544,13.172118 c -0.3645546,0.359229 -0.3645546,0.937807 0,1.297036 0.3645509,0.359225 0.9517108,0.359225 1.3162654,0 l 2.1761886,-2.144396 2.176185,2.144396 c 0.364555,0.359225 0.951715,0.359225 1.316266,0 0.364554,-0.359229 0.364554,-0.937807 0,-1.297036 L 12.31626,11.027723 14.492452,8.8833272 c 0.364551,-0.359229 0.364551,-0.9378104 0,-1.2970355 z" />
  <path
     inkscape:connector-curvature="0"
     style="opacity:0.87999998;fill:url(#linearGradient4195-3);fill-opacity:1;stroke:none"
     id="path4170"
     d="m 14.427157,7.5726888 c -0.361433,-0.3615 -0.943559,-0.3615 -1.304992,0 L 10.964612,9.7302892 8.8070618,7.5726888 c -0.3614321,-0.3615 -0.943558,-0.3615 -1.30499,0 -0.361429,0.3615 -0.361429,0.9435004 0,1.3050004 l 2.157552,2.1575998 -2.1575491,2.1574 c -0.361432,0.3615 -0.361432,0.9436 0,1.3051 0.3614291,0.3614 0.943558,0.3614 1.3049911,0 l 2.1575512,-2.1576 2.157545,2.1576 c 0.361432,0.3614 0.943562,0.3614 1.304991,0 0.361432,-0.3615 0.361432,-0.9436 0,-1.3051 l -2.15755,-2.1574 2.157554,-2.1575998 c 0.361428,-0.3615 0.361428,-0.9435004 0,-1.3050004 z" />
</svg>
