<?xml version="1.0" encoding="UTF-8" standalone="no"?>
<!-- Created with Inkscape (http://www.inkscape.org/) -->

<svg
   xmlns:dc="http://purl.org/dc/elements/1.1/"
   xmlns:cc="http://creativecommons.org/ns#"
   xmlns:rdf="http://www.w3.org/1999/02/22-rdf-syntax-ns#"
   xmlns:svg="http://www.w3.org/2000/svg"
   xmlns="http://www.w3.org/2000/svg"
   xmlns:xlink="http://www.w3.org/1999/xlink"
   version="1.1"
   width="19"
   height="19"
   id="svg2">
  <defs
     id="defs4">
    <radialGradient
       cx="11"
       cy="1040.3622"
       r="7.5"
       fx="11"
       fy="1040.3622"
       id="radialGradient5950"
       xlink:href="#waiss"
       gradientUnits="userSpaceOnUse"
       gradientTransform="matrix(1.1333333,0,0,1.1333333,-1.2666864,-1172.4105)" />
    <linearGradient
       id="waiss">
      <stop
         id="stop5954"
         style="stop-color:#ffffff;stop-opacity:1"
         offset="0" />
      <stop
         id="stop5956"
         style="stop-color:#fcfcfc;stop-opacity:1"
         offset="1" />
    </linearGradient>
    <linearGradient
       x1="1509.5334"
       y1="4492.1187"
       x2="1509.5334"
       y2="4800.3247"
       id="linearGradient4195"
       xlink:href="#linearGradient4001-6"
       gradientUnits="userSpaceOnUse"
       gradientTransform="matrix(0.03628,0,0,0.03627996,-44.990732,-158.60588)" />
    <linearGradient
       id="linearGradient4001-6">
      <stop
         id="stop4003-7"
         style="stop-color:#ffffff;stop-opacity:1"
         offset="0" />
      <stop
         id="stop4005-1"
         style="stop-color:#ffffff;stop-opacity:0"
         offset="1" />
    </linearGradient>
  </defs>
  <metadata
     id="metadata7">
    <rdf:RDF>
      <cc:Work
         rdf:about="">
        <dc:format>image/svg+xml</dc:format>
        <dc:type
           rdf:resource="http://purl.org/dc/dcmitype/StillImage" />
        <dc:title></dc:title>
      </cc:Work>
    </rdf:RDF>
  </metadata>
  <circle
     cx="9.5"
     cy="9.4999828"
     r="9.25"
     id="path4003"
     style="fill:#646464;fill-opacity:1;stroke:none" />
  <circle
     cx="9.5"
     cy="9.4999828"
     r="8.8500004"
     id="path4003-9"
     style="fill:#ffffff;fill-opacity:1;stroke:none" />
  <circle
     cx="9.5"
     cy="9.4999828"
     r="7.5"
     id="path4545"
     style="fill:#f8f8f8;fill-opacity:1;stroke:none" />
  <circle
     cx="9.5"
     cy="9.4999828"
     r="8.5"
     id="path4545-2"
     style="fill:url(#radialGradient5950);fill-opacity:1;stroke:none" />
  <path
     d="m 12.992452,6.0862745 c -0.364554,-0.3592287 -0.951711,-0.3592287 -1.316265,0 L 9.4999945,8.2306739 7.3238057,6.0862745 c -0.3645546,-0.3592287 -0.9517107,-0.3592287 -1.3162653,0 -0.364551,0.3592251 -0.364551,0.9378067 0,1.2970354 L 8.1837328,9.5277057 6.0075441,11.672101 c -0.3645547,0.359229 -0.3645547,0.937807 0,1.297036 0.3645509,0.359225 0.9517107,0.359225 1.3162653,0 l 2.1761887,-2.144396 2.1761849,2.144396 c 0.364555,0.359225 0.951715,0.359225 1.316266,0 0.364554,-0.359229 0.364554,-0.937807 0,-1.297036 L 10.81626,9.5277057 12.992452,7.3833099 c 0.364551,-0.3592287 0.364551,-0.9378103 0,-1.2970354 z"
     id="path4168"
     style="opacity:0.87999998;fill:#000000;fill-opacity:1;stroke:none;filter:url(#filter3997-1)" />
  <path
     d="m 12.911158,5.8842 c -0.361433,-0.3615 -0.943559,-0.3615 -1.304992,0 L 9.4486117,8.0418 7.2910617,5.8842 c -0.361432,-0.3615 -0.943558,-0.3615 -1.30499,0 -0.361429,0.3615 -0.361429,0.9435 0,1.305 l 2.157552,2.1576 -2.157549,2.1574 c -0.361432,0.3615 -0.361432,0.9436 0,1.3051 0.361429,0.3614 0.943558,0.3614 1.304991,0 l 2.157551,-2.1576 2.1575463,2.1576 c 0.361432,0.3614 0.943562,0.3614 1.304991,0 0.361432,-0.3615 0.361432,-0.9436 0,-1.3051 l -2.15755,-2.1574 2.157554,-2.1576 c 0.361428,-0.3615 0.361428,-0.9435 0,-1.305 z"
     id="path4170"
     style="opacity:0.87999998;fill:url(#linearGradient4195);fill-opacity:1;stroke:none" />
  <g
     id="layer2" />
</svg>
